<?xml version="1.0" standalone="no"?>
<!DOCTYPE svg PUBLIC "-//W3C//DTD SVG 20010904//EN"
 "http://www.w3.org/TR/2001/REC-SVG-20010904/DTD/svg10.dtd">
<svg version="1.0" xmlns="http://www.w3.org/2000/svg"
 width="3750.000000pt" height="2500.000000pt" viewBox="0 0 3750.000000 2500.000000"
 preserveAspectRatio="xMidYMid meet">

<g transform="translate(0.000000,2500.000000) scale(0.100000,-0.100000)"
fill="#000000" stroke="none">
<path d="M13560 15880 c-6 -12 -11 -45 -11 -74 0 -154 102 -241 340 -290 208
-42 339 -123 435 -268 39 -58 96 -204 96 -248 0 -14 4 -31 9 -39 12 -19 51 58
91 177 103 310 74 548 -78 638 -101 61 -331 97 -749 119 -117 6 -122 6 -133
-15z"/>
<path d="M15059 15523 c-13 -16 -12 -17 4 -4 9 7 17 15 17 17 0 8 -8 3 -21
-13z"/>
<path d="M15004 15478 l-19 -23 23 19 c21 18 27 26 19 26 -2 0 -12 -10 -23
-22z"/>
<path d="M14929 15413 l-34 -38 38 34 c34 33 42 41 34 41 -2 0 -19 -17 -38
-37z"/>
<path d="M14765 15258 l-70 -73 73 70 c67 64 77 75 69 75 -1 0 -34 -33 -72
-72z"/>
<path d="M14619 15103 l-34 -38 38 34 c20 19 37 36 37 38 0 8 -8 0 -41 -34z"/>
<path d="M14544 15018 l-19 -23 23 19 c21 18 27 26 19 26 -2 0 -12 -10 -23
-22z"/>
<path d="M14489 14953 c-13 -16 -12 -17 4 -4 9 7 17 15 17 17 0 8 -8 3 -21
-13z"/>
<path d="M14454 14908 l-19 -23 23 19 c12 11 22 21 22 23 0 8 -8 2 -26 -19z"/>
<path d="M14419 14863 c-13 -16 -12 -17 4 -4 9 7 17 15 17 17 0 8 -8 3 -21
-13z"/>
<path d="M21808 14541 c-142 -46 -263 -161 -323 -308 -20 -50 -26 -77 -39
-166 -1 -9 -8 -23 -14 -29 -16 -16 -15 -45 1 -55 6 -4 28 -8 47 -8 l35 0 22
-131 c26 -157 54 -234 94 -269 17 -14 35 -25 40 -25 5 0 9 24 9 53 0 30 9 70
20 95 16 36 18 51 10 86 -19 85 15 119 64 65 l29 -33 43 49 c24 26 48 61 55
77 l11 28 252 2 c138 1 274 3 301 4 28 1 110 2 183 3 l133 1 -3 32 -3 33 -140
17 c-77 10 -146 19 -154 20 -7 2 -21 34 -32 76 -46 182 -168 318 -339 379 -83
29 -217 31 -302 4z"/>
<path d="M14430 14401 c-36 -15 -114 -52 -175 -80 -144 -69 -213 -85 -337 -78
l-97 5 -91 -80 c-199 -177 -330 -366 -399 -578 -27 -80 -56 -229 -75 -377 -8
-62 -17 -116 -19 -120 -3 -4 152 -7 344 -5 l349 3 -2 -368 -3 -367 -270 -48
c-307 -53 -368 -64 -662 -117 -231 -42 -240 -46 -297 -123 -27 -36 -31 -51
-31 -103 l0 -60 135 -26 c400 -78 640 -112 938 -131 l192 -12 0 -269 0 -269
-432 4 c-238 1 -409 2 -380 0 l52 -3 0 -208 c0 -232 4 -271 31 -278 11 -3 20
-17 24 -37 4 -29 55 -667 55 -693 0 -10 -345 -13 -1689 -13 l-1689 0 -6 -117
c-4 -65 -11 -152 -16 -193 -5 -41 -14 -169 -20 -285 -6 -115 -17 -313 -25
-440 -37 -592 -88 -1403 -109 -1725 -12 -195 -22 -356 -21 -357 0 -1 43 -3 94
-4 l92 -1 -5 -37 c-3 -20 -8 -90 -11 -156 -3 -66 -8 -141 -11 -167 l-6 -48
186 0 186 0 0 -70 0 -70 -239 0 -240 0 -20 -26 c-14 -18 -21 -41 -21 -70 0
-24 -3 -44 -6 -44 -3 0 -20 11 -38 25 -42 32 -129 71 -213 97 -98 29 -305 36
-405 14 -138 -31 -253 -98 -327 -191 -30 -37 -51 -55 -67 -55 -34 0 -55 -72
-61 -205 -6 -130 8 -201 64 -315 51 -104 160 -213 266 -265 42 -21 77 -38 77
-39 0 -1 -1563 0 -3474 2 -2250 1 -3484 -1 -3500 -8 -28 -10 -34 -38 -14 -58
18 -18 33458 -18 33476 0 20 20 14 48 -14 58 -17 7 -1507 9 -4271 8 -2335 -2
-4228 1 -4206 5 207 43 330 90 463 178 630 413 711 1301 168 1816 -453 428
-1147 428 -1604 0 -171 -160 -303 -407 -345 -647 -16 -93 -16 -303 0 -390 57
-307 228 -578 475 -755 128 -91 319 -171 466 -194 35 -6 64 -12 65 -13 2 -2
-1398 -3 -3112 -3 -1713 0 -3098 4 -3076 8 209 44 332 92 470 183 217 144 391
373 464 609 l24 75 1996 0 1996 0 21 23 c21 22 22 32 22 201 0 247 25 392 97
566 163 394 496 683 913 792 153 40 382 50 541 23 280 -46 528 -174 729 -375
204 -204 330 -451 379 -743 11 -64 25 -125 31 -137 45 -85 219 -78 294 11 67
79 71 163 16 365 -83 310 -245 582 -473 800 -214 204 -442 335 -725 417 -45
13 -87 28 -91 33 -5 5 -252 522 -549 1149 -588 1241 -567 1203 -709 1320 -37
31 -101 76 -140 98 -40 23 -75 49 -77 57 -3 8 -7 80 -11 160 -3 80 -8 163 -12
185 l-6 40 69 -74 c38 -41 96 -92 128 -113 66 -43 181 -82 269 -92 l57 -6 0
134 0 134 33 25 c76 58 134 210 124 323 -9 96 -41 167 -108 238 l-59 64 0 144
0 144 -63 -6 c-86 -9 -184 -44 -254 -89 -71 -46 -167 -148 -196 -208 -20 -41
-22 -43 -28 -21 -4 12 -7 40 -8 60 -1 20 -6 49 -13 63 -22 48 -51 55 -238 55
-164 0 -173 -1 -222 -26 -99 -50 -177 -142 -193 -226 -5 -27 -13 -38 -31 -42
l-24 -6 29 -48 c38 -62 47 -105 26 -125 -13 -13 -22 -102 -48 -479 -18 -255
-30 -480 -26 -503 4 -22 27 -110 52 -195 276 -946 181 -2068 -271 -3195 -48
-120 -160 -365 -174 -382 -6 -7 -32 -13 -58 -13 -45 0 -49 2 -55 30 -13 61
-75 109 -160 125 -111 19 -273 96 -347 163 -34 30 -37 37 -22 42 14 5 69 225
291 1151 l273 1144 -5 120 c-11 230 -43 363 -103 423 -167 167 -751 361 -1464
487 l-98 17 30 35 c34 38 36 52 16 91 -41 80 -45 113 -56 488 -6 203 -14 421
-18 486 l-7 116 30 -13 c16 -7 65 -29 109 -49 163 -76 210 -83 746 -121 604
-42 815 -53 827 -43 7 5 22 35 33 65 16 44 20 74 18 146 l-3 90 -330 68 c-632
128 -872 187 -974 239 -90 45 -451 294 -524 360 -5 4 -17 52 -28 106 -56 290
-180 485 -427 672 -71 54 -73 54 -130 50 -123 -11 -263 23 -414 98 -37 19 -76
34 -87 34 -56 0 -213 -195 -290 -361 -161 -345 -220 -737 -187 -1249 11 -175
16 -414 16 -835 1 -565 7 -722 31 -751 5 -7 17 -57 24 -112 33 -235 87 -434
139 -513 33 -48 61 -61 192 -88 227 -45 534 -61 1292 -68 388 -3 632 -9 632
-15 0 -5 -9 -44 -19 -86 -86 -337 -141 -1048 -141 -1818 l0 -331 60 -26 c57
-25 60 -28 60 -63 0 -58 40 -236 60 -271 l19 -33 -179 0 -179 0 -44 58 c-276
358 -466 817 -535 1287 -22 155 -21 524 2 659 9 54 15 100 13 102 -2 2 -559 4
-1238 4 -1321 0 -1254 2 -1476 -45 -30 -7 -34 -4 -85 65 -29 39 -52 76 -50 81
1 5 -2 8 -7 7 -5 -2 -54 56 -108 127 -130 170 -433 567 -446 583 -7 9 94 12
501 12 l510 0 93 -120 93 -120 109 0 108 0 -21 30 c-12 17 -19 38 -16 46 3 8
2 13 -3 10 -5 -3 -32 31 -60 75 l-51 80 99 -2 99 -2 37 34 c57 52 65 76 65
185 0 80 -4 102 -20 130 -28 45 -92 74 -163 74 l-57 0 0 190 0 190 -146 0
-146 0 7 33 c10 40 10 65 0 95 l-7 22 146 0 146 0 0 500 0 500 -460 0 -460 0
0 -765 0 -765 -976 0 -976 0 -40 -22 c-60 -34 -78 -78 -78 -189 0 -111 15
-150 75 -184 l42 -25 619 0 620 0 54 -62 c30 -34 54 -66 52 -71 -1 -5 2 -6 7
-3 5 3 21 -9 36 -26 16 -18 179 -195 363 -392 l335 -359 -114 -37 c-468 -152
-822 -386 -1089 -721 -275 -345 -436 -775 -489 -1305 -15 -148 -15 -367 -1
-396 19 -35 52 -69 80 -81 17 -7 198 -10 576 -8 l551 3 13 -48 c82 -302 355
-613 645 -733 74 -31 213 -72 295 -88 25 -4 -713 -8 -1658 -8 -936 0 -1702 1
-1702 1 0 1 28 15 63 32 88 44 167 110 223 186 l49 66 129 0 c119 0 132 -2
153 -22 13 -12 23 -17 23 -12 0 5 -12 17 -28 28 -15 10 -61 63 -102 117 -41
55 -80 105 -87 113 -23 26 -257 336 -420 558 -93 125 -171 227 -175 227 -5 1
-8 -49 -8 -109 l0 -110 -227 2 -228 3 -8 60 c-8 63 -73 504 -83 567 l-7 37
118 3 117 3 -126 178 c-70 98 -123 183 -120 189 4 6 3 8 -3 5 -6 -4 -23 12
-38 35 -21 31 -37 82 -61 197 -95 438 -204 792 -309 1001 -21 41 -66 115 -101
164 -160 224 -335 657 -449 1116 -39 156 -59 299 -75 530 -6 91 -20 250 -30
354 l-20 189 25 23 c30 28 30 18 8 323 -17 245 -21 683 -13 1486 4 330 1 429
-13 565 -49 461 -177 847 -342 1028 -78 85 -93 88 -195 43z m-3300 -6078 c61
-38 75 -74 75 -188 0 -114 -14 -151 -75 -188 -30 -19 -50 -22 -150 -22 l-115
0 -3 200 c-1 110 0 206 3 213 4 11 29 13 118 11 94 -4 118 -8 147 -26z m440
13 c6 -8 10 -25 8 -38 -3 -22 -7 -23 -105 -26 l-103 -3 0 -44 0 -44 93 -3 92
-3 3 -37 3 -38 -95 0 -96 0 0 -50 0 -50 106 0 105 0 -3 -37 -3 -38 -125 -3
c-189 -4 -170 -28 -170 212 0 111 3 206 7 209 3 4 66 7 138 7 103 0 135 -3
145 -14z m158 2 c8 -8 12 -61 12 -175 l0 -162 103 -3 102 -3 0 -35 0 -35 -145
0 -145 0 -3 200 c-1 110 0 205 2 212 7 16 58 17 74 1z m350 0 c8 -8 12 -68 12
-204 0 -209 -2 -218 -57 -212 l-28 3 -3 200 c-1 110 0 205 2 212 7 16 58 17
74 1z m199 -138 c45 -128 52 -142 61 -120 5 14 26 75 47 135 21 61 43 116 48
123 13 17 66 15 73 -2 6 -15 -120 -381 -138 -403 -11 -14 -56 -17 -74 -5 -6 4
-42 95 -81 202 -75 209 -76 224 -19 218 30 -3 32 -6 83 -148z m583 136 c6 -8
10 -25 8 -38 -3 -22 -7 -23 -105 -26 l-103 -3 0 -44 0 -44 93 -3 92 -3 3 -37
3 -38 -95 0 -96 0 0 -50 0 -50 106 0 105 0 -3 -37 -3 -38 -145 0 -145 0 -3
200 c-1 110 0 205 2 212 8 20 269 18 286 -1z m309 4 c101 -29 132 -149 57
-222 l-34 -33 40 -69 c21 -38 37 -75 34 -83 -3 -7 -20 -13 -40 -13 -34 0 -38
4 -82 80 -44 78 -47 80 -83 80 l-38 0 5 -68 c5 -77 -7 -96 -55 -90 l-28 3 -3
200 c-1 110 0 205 2 212 6 16 173 18 225 3z m227 -35 c26 -47 44 -235 20 -199
-42 61 -126 226 -121 235 4 5 23 9 43 7 31 -3 40 -9 58 -43z m1429 -717 c78
-154 441 -810 618 -1118 l95 -165 -331 -3 c-181 -1 -332 0 -335 3 -3 3 -32
315 -63 693 -32 378 -59 699 -62 715 -2 15 -2 27 -1 27 1 0 37 -69 79 -152z
m12165 -634 c187 -55 325 -186 395 -374 25 -65 28 -90 29 -190 1 -129 -11
-176 -72 -294 -67 -129 -202 -236 -357 -282 -88 -26 -239 -25 -330 4 -198 61
-359 233 -406 432 -16 71 -16 200 0 270 53 224 248 409 474 450 68 12 199 4
267 -16z m-17655 -853 c54 -24 108 -69 99 -83 -3 -5 0 -7 7 -6 7 2 26 -21 42
-51 74 -134 32 -309 -95 -401 -50 -36 -56 -37 -64 -6 -3 14 -12 27 -19 30 -16
6 -14 -17 5 -39 18 -22 4 -31 -65 -40 -99 -12 -194 24 -264 100 -61 67 -84
124 -84 213 0 63 4 81 34 139 38 76 104 134 179 158 61 20 162 14 225 -14z
m11476 -54 c-74 -108 -220 -208 -346 -238 -68 -15 -208 -16 -275 0 -131 31
-269 124 -348 235 l-33 46 516 0 516 0 -30 -43z m-10761 -345 c0 -190 3 -242
14 -258 13 -18 30 -19 222 -22 l208 -3 61 -57 c34 -32 95 -75 137 -97 l76 -40
-674 0 c-371 0 -674 1 -674 2 0 1 21 11 46 22 228 101 376 348 362 602 l-5 89
113 0 114 0 0 -238z m3531 231 c0 -5 6 -66 13 -137 12 -116 16 -131 37 -147
23 -17 23 -18 6 -53 -56 -119 -221 -221 -425 -262 -92 -19 -129 -36 -162 -75
l-25 -29 -918 -2 c-504 -2 -917 -2 -917 0 0 1 24 13 53 26 61 27 171 108 194
142 13 20 24 24 65 24 39 0 54 5 73 25 l25 24 0 236 0 235 990 0 c545 0 990
-3 991 -7z m639 -5 c0 -9 3 -8 10 2 5 8 12 11 16 7 4 -4 3 -12 -3 -18 -13 -13
-6 -39 9 -39 6 0 5 6 -2 15 -8 10 -9 15 -2 15 6 0 15 -6 19 -12 15 -25 52 -16
62 14 10 28 43 39 56 18 4 -6 11 -8 16 -5 5 4 16 2 24 -2 13 -7 9 -13 -17 -33
-27 -19 -30 -20 -15 -3 16 19 16 20 -6 30 -13 6 -28 8 -34 5 -14 -10 -24 -42
-13 -42 6 0 10 4 10 9 0 5 7 12 16 15 13 5 14 4 6 -7 -7 -8 -9 -17 -5 -20 3
-4 -24 -7 -60 -7 -42 0 -67 -4 -67 -11 0 -7 14 -8 39 -4 23 4 42 2 45 -4 9
-14 -4 -20 -52 -22 -39 -3 -42 -5 -42 -31 0 -21 4 -26 16 -21 12 4 13 7 3 14
-21 12 -1 24 36 21 18 -2 36 2 40 8 5 8 11 8 21 -1 11 -9 14 -8 14 5 0 9 -4
16 -10 16 -5 0 -10 4 -10 9 0 6 9 9 20 8 13 -1 19 -6 15 -15 -3 -8 -8 -25 -11
-38 -3 -13 -10 -21 -15 -18 -5 3 -9 1 -9 -5 0 -16 18 -22 24 -9 5 10 7 10 12
0 11 -23 47 -52 66 -52 10 0 18 -4 18 -10 0 -13 -27 -13 -35 0 -4 6 -14 9 -23
8 -10 -2 -18 6 -22 22 -4 17 -8 21 -14 12 -4 -7 -2 -20 6 -29 10 -13 10 -17 1
-20 -7 -3 -13 -9 -13 -15 0 -6 6 -6 15 2 12 10 15 10 15 -3 0 -8 -6 -17 -12
-20 -7 -2 -9 -8 -5 -13 4 -5 13 -2 18 6 9 12 10 12 5 -2 -3 -10 -3 -24 0 -31
6 -16 74 -22 74 -6 0 6 -7 8 -16 5 -20 -8 -54 2 -54 15 0 5 8 9 18 9 16 1 16
1 0 14 -10 7 -18 21 -18 31 0 16 2 16 25 1 21 -14 30 -14 77 -2 l53 15 -39 0
c-44 1 -45 10 -2 13 16 2 31 8 33 15 3 7 10 10 16 6 6 -4 8 0 4 10 -3 10 -2
17 2 17 5 0 8 16 6 36 -3 32 -2 34 13 22 47 -36 101 -94 97 -105 -2 -7 1 -13
8 -13 8 0 8 -3 -2 -9 -8 -5 -10 -14 -6 -22 5 -8 -7 0 -25 16 -20 18 -31 24
-27 13 6 -16 -15 -32 -27 -21 -10 10 -7 25 4 18 17 -11 11 7 -7 20 -15 11 -15
15 -4 29 11 14 11 16 -2 16 -11 0 -14 -9 -12 -38 2 -22 -1 -45 -7 -53 -7 -10
-8 -8 -3 9 4 13 2 22 -4 22 -6 0 -11 -9 -11 -19 0 -11 -3 -21 -7 -24 -5 -2 -3
-2 4 -1 6 2 17 -4 24 -12 14 -17 -2 -63 -23 -65 -12 -1 -115 -1 -149 1 -9 0
-20 11 -23 25 -4 15 -11 23 -17 19 -8 -4 -7 -9 2 -14 10 -7 10 -11 0 -24 -8
-9 -18 -16 -23 -16 -6 0 -5 7 2 15 7 9 11 18 8 20 -3 3 -10 -1 -17 -9 -7 -8
-20 -12 -34 -8 -20 6 -19 7 8 12 22 4 31 11 33 29 2 13 -1 28 -7 34 -13 13
-15 30 -2 23 5 -3 11 0 14 8 4 10 -5 12 -36 10 -120 -11 -111 -13 -114 31 -3
30 -1 36 7 25 8 -12 10 -8 8 15 -1 17 2 44 6 62 9 40 -3 66 -24 53 -13 -8 -12
-10 3 -10 9 0 17 -7 17 -15 0 -8 -4 -15 -10 -15 -5 0 -10 5 -10 12 0 22 -10 1
-24 -53 -11 -41 -15 -47 -15 -25 -1 46 30 146 45 146 8 0 14 -6 14 -12z m1555
-22 c12 -22 24 -32 33 -28 12 4 14 -19 10 -164 -4 -141 -8 -178 -26 -222 -30
-78 -66 -119 -132 -152 -51 -26 -80 -53 -80 -74 0 -3 9 -13 19 -23 19 -17 2
-18 -440 -18 -252 0 -459 1 -459 2 0 1 30 17 67 35 75 37 208 155 238 212 l20
36 148 0 149 0 -7 27 c-21 86 -125 263 -189 322 -16 15 -26 35 -26 53 l0 28
328 0 329 0 18 -34z m-1587 -162 c-2 -36 15 -58 40 -49 17 6 15 1 -7 -19 -19
-18 -20 -17 -36 20 -9 21 -13 49 -10 61 8 35 16 27 13 -13z m132 -44 c0 -5 -9
-10 -20 -10 -21 0 -24 -4 -35 -53 -4 -22 -3 -27 7 -21 10 6 10 5 0 -8 -11 -14
-10 -17 6 -23 11 -3 24 -5 28 -4 5 1 17 -1 28 -6 11 -5 26 -4 35 2 12 7 20 6
30 -4 7 -8 19 -12 27 -9 8 3 14 1 14 -4 0 -6 10 -10 23 -9 20 0 21 1 3 8 -20
8 -20 8 0 13 30 8 94 -3 94 -16 0 -6 -13 -12 -30 -12 -16 -1 -28 2 -25 6 3 5
-6 3 -19 -3 -16 -8 -21 -14 -13 -19 7 -5 2 -8 -13 -9 -16 -1 -19 -3 -8 -6 9
-2 30 3 47 11 20 11 32 12 36 5 5 -7 11 -7 19 0 7 6 17 7 21 3 5 -4 5 -2 2 4
-3 6 -1 11 6 11 25 1 42 9 58 25 9 10 19 15 23 11 3 -3 6 3 6 15 0 11 5 24 12
28 7 5 8 3 3 -6 -5 -8 -3 -11 6 -8 8 3 16 13 17 23 3 10 0 15 -7 11 -6 -4 -11
-2 -11 5 0 7 9 9 23 6 21 -6 21 -6 3 9 -17 12 -18 16 -6 27 8 7 10 8 7 1 -4
-7 0 -14 8 -18 25 -9 17 -30 -27 -75 -49 -50 -138 -95 -173 -88 -14 2 -26 0
-28 -6 -4 -12 -107 1 -107 15 0 5 -4 7 -9 3 -14 -8 -62 17 -57 30 2 6 -2 12
-10 12 -7 0 -10 -5 -7 -11 7 -12 -18 5 -55 39 -28 23 -47 55 -34 55 5 0 13
-10 19 -22 8 -19 10 -20 16 -4 4 10 3 15 -3 11 -6 -3 -10 -1 -10 4 0 6 5 11
10 11 6 0 10 7 10 16 0 14 -2 15 -17 3 -16 -13 -17 -12 -4 4 7 9 28 21 45 26
17 5 32 10 34 10 1 1 2 -3 2 -9z m290 -40 c0 -5 -7 -7 -15 -4 -8 4 -12 10 -9
15 6 11 24 2 24 -11z m31 -50 c18 0 17 -2 -7 -25 -21 -19 -29 -22 -36 -13 -6
10 -8 10 -8 1 0 -7 -4 -13 -10 -13 -6 0 -5 10 2 25 9 21 14 23 26 12 13 -10
14 -9 4 10 -15 27 -15 45 -1 21 5 -10 19 -18 30 -18z m1656 -347 c40 -20 73
-36 73 -37 0 -1 -99 -1 -219 -1 -121 0 -217 3 -214 8 2 4 10 7 18 7 23 0 111
87 129 129 l19 40 61 -55 c33 -30 94 -71 133 -91z m-2193 63 c23 -19 72 -50
109 -68 l66 -33 -124 0 c-107 0 -124 2 -119 15 3 8 8 39 11 68 3 28 8 52 10
52 3 0 24 -16 47 -34z"/>
<path d="M10950 8135 l0 -138 62 6 c89 8 108 32 108 132 0 63 -3 78 -23 101
-20 23 -34 28 -85 32 l-62 4 0 -137z"/>
<path d="M13029 8268 c0 -2 -2 -27 -2 -55 l-2 -53 62 0 c70 0 96 17 91 59 -4
33 -39 51 -100 51 -27 0 -48 -1 -49 -2z"/>
<path d="M9175 6070 c-13 -41 43 -70 64 -33 13 25 -5 53 -34 53 -15 0 -26 -7
-30 -20z"/>
<path d="M9440 5987 c0 -9 4 -18 9 -21 5 -4 8 1 7 9 -3 21 -16 31 -16 12z"/>
<path d="M8972 5958 c-25 -25 -6 -68 30 -68 9 0 22 9 28 19 13 25 13 27 -6 45
-19 19 -36 20 -52 4z"/>
<path d="M9387 5955 c-19 -18 -11 -52 14 -60 24 -8 38 1 48 28 14 37 -33 61
-62 32z"/>
<path d="M9461 5924 c-9 -21 -9 -30 0 -38 9 -8 10 -8 5 2 -4 6 -3 12 3 12 6 0
7 -15 4 -37 -7 -49 -13 -55 -13 -15 0 39 -16 42 -23 5 -12 -61 -12 -68 1 -65
8 1 11 -2 7 -8 -3 -5 0 -7 8 -4 8 3 17 -2 20 -10 4 -9 2 -16 -3 -16 -6 0 -10
5 -10 12 0 6 -3 8 -7 5 -3 -4 -13 -1 -21 5 -17 15 -36 -10 -41 -54 0 -6 -4 -8
-8 -4 -4 3 -20 -7 -37 -23 -56 -54 -131 -84 -210 -84 -66 -1 -85 -8 -86 -31 0
-6 6 -2 13 7 11 16 39 18 53 4 4 -3 -6 -4 -21 -1 -17 3 -24 1 -20 -6 3 -5 -1
-13 -10 -16 -25 -10 2 -23 35 -17 16 2 31 -1 35 -6 4 -7 -1 -9 -12 -5 -17 5
-17 5 -1 -6 13 -8 23 -8 37 0 27 14 36 13 23 -3 -9 -10 -4 -13 21 -14 30 -1
30 -1 7 7 -21 7 -18 8 20 10 25 1 54 1 65 0 16 -2 17 0 6 14 -14 16 -26 22
-18 9 6 -10 -91 -8 -118 1 -16 6 -17 6 -5 -3 8 -6 11 -11 5 -11 -5 1 -19 7
-29 15 -19 14 -18 15 10 15 16 0 36 5 44 10 10 6 2 7 -25 3 -22 -3 -37 -3 -34
1 3 3 28 9 55 11 27 3 51 10 52 15 5 14 35 13 50 -2 9 -9 12 -8 12 5 0 9 -6
17 -12 17 -7 0 -4 6 7 12 11 6 31 20 45 32 l25 21 -18 -22 c-27 -32 -8 -63 39
-63 19 0 33 -4 30 -9 -3 -4 -17 -7 -30 -6 -20 3 -24 -1 -21 -17 3 -14 0 -18
-10 -14 -16 6 -30 -10 -16 -18 11 -7 93 52 86 63 -2 5 2 11 10 15 8 3 15 13
15 21 0 9 4 14 8 11 5 -3 9 1 9 9 0 13 -3 12 -18 -1 -10 -9 -16 -21 -13 -25 3
-5 0 -9 -5 -9 -6 0 -11 8 -11 18 0 10 -8 28 -17 41 -9 14 -12 22 -7 18 6 -3
10 6 10 20 -1 15 4 28 11 30 7 3 9 -3 6 -17 -4 -14 1 -26 13 -35 18 -13 18
-14 -4 -8 -17 4 -21 2 -17 -9 9 -23 77 1 69 24 -3 10 0 18 6 18 6 0 8 5 5 10
-3 6 -1 10 4 10 18 0 12 38 -6 50 -17 11 -17 11 0 6 11 -3 17 0 17 9 0 8 -6
15 -12 15 -10 0 -9 3 1 9 10 6 11 17 6 37 -5 16 -9 31 -9 34 -1 3 -6 13 -12
23 -9 16 -11 16 -23 -9z m9 -126 c0 -3 -9 -6 -20 -5 -11 1 -20 5 -20 9 0 3 9
6 20 5 11 -1 20 -5 20 -9z m0 -58 c12 -8 12 -10 1 -10 -11 0 -11 -3 -1 -15 10
-12 10 -15 0 -15 -6 0 -14 9 -17 21 -4 16 -8 17 -14 7 -7 -10 -9 -9 -9 5 0 19
17 22 40 7z m-70 -154 c0 -2 -7 -7 -16 -10 -8 -3 -12 -2 -9 4 6 10 25 14 25 6z
m-300 -24 c0 -5 -7 -9 -15 -9 -8 0 -12 4 -9 9 3 4 9 8 15 8 5 0 9 -4 9 -8z"/>
<path d="M9138 5880 c-27 -28 -30 -36 -25 -73 11 -83 96 -115 156 -59 67 61
30 162 -59 162 -33 0 -48 -6 -72 -30z"/>
<path d="M9015 5674 c-9 -9 -14 -23 -10 -31 4 -11 -4 -10 -30 6 l-36 21 16
-23 c8 -12 21 -22 28 -22 6 0 12 -5 12 -12 0 -7 9 -18 19 -26 18 -13 22 -11
43 20 26 38 28 54 11 71 -16 16 -34 15 -53 -4z m25 -70 c0 -2 -9 -4 -21 -4
-11 0 -18 4 -14 10 5 8 35 3 35 -6z"/>
<path d="M9310 5628 c1 -14 24 -48 33 -48 3 0 0 14 -6 30 -11 30 -27 41 -27
18z"/>
<path d="M9233 5594 c-48 -21 -47 -32 2 -30 25 0 44 6 43 11 -2 6 -12 9 -23 8
-17 -2 -16 0 5 12 32 18 15 18 -27 -1z"/>
<path d="M14583 5805 c0 -9 6 -14 14 -11 7 3 13 2 13 -3 0 -12 36 -51 43 -45
3 3 8 1 11 -5 7 -11 -26 -7 -45 5 -7 4 -10 2 -8 -5 3 -7 7 -11 11 -9 3 2 15
-6 27 -16 12 -11 24 -16 28 -13 3 4 0 7 -7 7 -11 0 -11 3 -2 12 9 9 1 22 -34
55 -25 24 -47 43 -48 43 -2 0 -3 -7 -3 -15z"/>
<path d="M14213 5732 c1 -15 5 -17 24 -8 30 14 29 26 -1 26 -18 0 -24 -5 -23
-18z"/>
<path d="M14500 5618 c0 -3 16 -6 35 -5 19 1 35 5 35 9 0 4 -16 7 -35 5 -19
-1 -35 -5 -35 -9z"/>
<path d="M14338 5548 c13 -13 102 -18 102 -6 0 4 -8 8 -17 9 -10 1 -35 3 -57
4 -27 3 -35 0 -28 -7z"/>
<path d="M13178 13083 c6 -2 18 -2 25 0 6 3 1 5 -13 5 -14 0 -19 -2 -12 -5z"/>
<path d="M15751 12764 c0 -11 3 -14 6 -6 3 7 2 16 -1 19 -3 4 -6 -2 -5 -13z"/>
<path d="M15742 12700 c0 -14 2 -19 5 -12 2 6 2 18 0 25 -3 6 -5 1 -5 -13z"/>
<path d="M15732 12605 c0 -16 2 -22 5 -12 2 9 2 23 0 30 -3 6 -5 -1 -5 -18z"/>
<path d="M15723 12445 c0 -27 2 -38 4 -22 2 15 2 37 0 50 -2 12 -4 0 -4 -28z"/>
<path d="M15733 12270 c0 -25 2 -35 4 -22 2 12 2 32 0 45 -2 12 -4 2 -4 -23z"/>
<path d="M15742 12185 c0 -16 2 -22 5 -12 2 9 2 23 0 30 -3 6 -5 -1 -5 -18z"/>
<path d="M15751 12124 c0 -11 3 -14 6 -6 3 7 2 16 -1 19 -3 4 -6 -2 -5 -13z"/>
<path d="M15761 12064 c0 -11 3 -14 6 -6 3 7 2 16 -1 19 -3 4 -6 -2 -5 -13z"/>
<path d="M24711 11501 c-38 -10 -35 -26 8 -46 45 -20 78 -51 67 -63 -4 -4 -41
-7 -82 -7 -63 0 -74 -3 -74 -17 0 -9 7 -23 15 -32 13 -13 27 -11 122 15 60 16
121 32 136 36 l28 6 -33 20 c-18 11 -50 35 -71 53 -20 19 -43 34 -51 34 -8 0
-20 2 -28 4 -7 2 -24 1 -37 -3z"/>
<path d="M16068 11355 c6 -11 27 -38 47 -60 l37 -40 -38 50 c-48 63 -59 75
-46 50z"/>
<path d="M16170 11225 c13 -14 26 -25 28 -25 3 0 -5 11 -18 25 -13 14 -26 25
-28 25 -3 0 5 -11 18 -25z"/>
<path d="M16290 11095 c30 -30 57 -55 59 -55 3 0 -19 25 -49 55 -30 30 -57 55
-59 55 -3 0 19 -25 49 -55z"/>
<path d="M16385 11010 c10 -11 20 -20 23 -20 3 0 -3 9 -13 20 -10 11 -20 20
-23 20 -3 0 3 -9 13 -20z"/>
<path d="M16440 10966 c0 -2 8 -10 18 -17 15 -13 16 -12 3 4 -13 16 -21 21
-21 13z"/>
<path d="M16480 10936 c0 -2 8 -10 18 -17 15 -13 16 -12 3 4 -13 16 -21 21
-21 13z"/>
<path d="M16554 10881 c7 -11 46 -35 46 -28 0 3 -12 12 -26 22 -15 9 -23 12
-20 6z"/>
<path d="M17098 10623 c7 -3 16 -2 19 1 4 3 -2 6 -13 5 -11 0 -14 -3 -6 -6z"/>
<path d="M17278 10583 c7 -3 16 -2 19 1 4 3 -2 6 -13 5 -11 0 -14 -3 -6 -6z"/>
<path d="M17338 10573 c7 -3 16 -2 19 1 4 3 -2 6 -13 5 -11 0 -14 -3 -6 -6z"/>
<path d="M17418 10563 c6 -2 18 -2 25 0 6 3 1 5 -13 5 -14 0 -19 -2 -12 -5z"/>
<path d="M17508 10553 c7 -3 16 -2 19 1 4 3 -2 6 -13 5 -11 0 -14 -3 -6 -6z"/>
<path d="M17577 10553 c18 -2 50 -2 70 0 21 2 7 4 -32 4 -38 0 -55 -2 -38 -4z"/>
<path d="M9735 9640 c3 -5 8 -10 11 -10 2 0 4 5 4 10 0 6 -5 10 -11 10 -5 0
-7 -4 -4 -10z"/>
<path d="M9501 9502 c-28 -24 -39 -39 -28 -39 9 0 15 4 14 8 -1 4 14 21 33 38
19 17 33 30 30 31 -3 0 -25 -17 -49 -38z"/>
<path d="M9390 9405 c-13 -14 -19 -25 -14 -25 8 1 50 50 41 50 -2 0 -14 -11
-27 -25z"/>
<path d="M9289 9288 c-24 -29 -32 -43 -18 -30 14 12 29 19 34 15 4 -5 5 -2 1
5 -5 8 1 23 15 38 12 13 20 24 17 24 -4 0 -25 -24 -49 -52z"/>
<path d="M9229 9213 c-13 -16 -12 -17 4 -4 9 7 17 15 17 17 0 8 -8 3 -21 -13z"/>
<path d="M9308 8893 c50 -2 134 -2 185 0 50 1 9 3 -93 3 -102 0 -143 -2 -92
-3z"/>
<path d="M9069 8813 l-34 -38 38 34 c20 19 37 36 37 38 0 8 -8 0 -41 -34z"/>
<path d="M9584 8630 c0 -63 1 -89 3 -57 2 31 2 83 0 115 -2 31 -3 5 -3 -58z"/>
<path d="M8996 8697 c3 -10 9 -15 12 -12 3 3 0 11 -7 18 -10 9 -11 8 -5 -6z"/>
<path d="M8992 8640 c0 -19 2 -27 5 -17 2 9 2 25 0 35 -3 9 -5 1 -5 -18z"/>
<path d="M8699 8575 c-15 -8 -32 -29 -38 -46 -14 -40 -15 -189 -1 -189 6 0 10
38 10 94 0 90 1 96 26 115 22 17 41 21 105 21 46 0 79 4 79 10 0 16 -151 12
-181 -5z"/>
<path d="M8962 8410 c0 -14 2 -19 5 -12 2 6 2 18 0 25 -3 6 -5 1 -5 -13z"/>
<path d="M8588 8343 c12 -2 30 -2 40 0 9 3 -1 5 -23 4 -22 0 -30 -2 -17 -4z"/>
<path d="M8951 8324 c0 -11 3 -14 6 -6 3 7 2 16 -1 19 -3 4 -6 -2 -5 -13z"/>
<path d="M8608 8323 c12 -2 30 -2 40 0 9 3 -1 5 -23 4 -22 0 -30 -2 -17 -4z"/>
<path d="M8688 8323 c12 -2 32 -2 45 0 12 2 2 4 -23 4 -25 0 -35 -2 -22 -4z"/>
<path d="M8760 8311 c0 -6 4 -13 10 -16 6 -3 7 1 4 9 -7 18 -14 21 -14 7z"/>
<path d="M8522 8230 c-57 -323 -57 -377 -1 -405 35 -19 45 -19 30 -2 -7 9 -12
96 -13 248 -3 229 -3 232 -16 159z"/>
<path d="M8552 8079 c-2 -206 0 -228 16 -240 15 -12 16 -12 5 2 -9 11 -13 81
-16 240 l-2 224 -3 -226z"/>
<path d="M9574 8205 c0 -55 1 -76 3 -47 2 29 2 74 0 100 -2 26 -3 2 -3 -53z"/>
<path d="M8770 8066 c0 -135 -4 -217 -10 -221 -6 -4 -8 -11 -4 -16 17 -28 23
23 24 226 0 124 -2 225 -5 225 -3 0 -5 -96 -5 -214z"/>
<path d="M8941 8244 c0 -11 3 -14 6 -6 3 7 2 16 -1 19 -3 4 -6 -2 -5 -13z"/>
<path d="M8931 8174 c0 -11 3 -14 6 -6 3 7 2 16 -1 19 -3 4 -6 -2 -5 -13z"/>
<path d="M9163 8013 c76 -2 198 -2 270 0 73 1 11 3 -138 3 -148 0 -208 -2
-132 -3z"/>
<path d="M8588 7813 c7 -3 16 -2 19 1 4 3 -2 6 -13 5 -11 0 -14 -3 -6 -6z"/>
<path d="M8311 6674 c0 -11 3 -14 6 -6 3 7 2 16 -1 19 -3 4 -6 -2 -5 -13z"/>
<path d="M8301 6624 c0 -11 3 -14 6 -6 3 7 2 16 -1 19 -3 4 -6 -2 -5 -13z"/>
<path d="M8281 6524 c0 -11 3 -14 6 -6 3 7 2 16 -1 19 -3 4 -6 -2 -5 -13z"/>
<path d="M8271 6474 c0 -11 3 -14 6 -6 3 7 2 16 -1 19 -3 4 -6 -2 -5 -13z"/>
<path d="M8232 6280 c0 -14 2 -19 5 -12 2 6 2 18 0 25 -3 6 -5 1 -5 -13z"/>
<path d="M8201 6138 c0 -9 -4 -25 -7 -35 -5 -17 -5 -17 6 0 6 10 9 25 7 35 -4
15 -5 15 -6 0z"/>
<path d="M18269 6063 c-13 -16 -12 -17 4 -4 9 7 17 15 17 17 0 8 -8 3 -21 -13z"/>
<path d="M18239 6023 c-13 -16 -12 -17 4 -4 9 7 17 15 17 17 0 8 -8 3 -21 -13z"/>
<path d="M18179 5943 c-13 -16 -12 -17 4 -4 9 7 17 15 17 17 0 8 -8 3 -21 -13z"/>
<path d="M18049 5773 c-13 -16 -12 -17 4 -4 16 13 21 21 13 21 -2 0 -10 -8
-17 -17z"/>
<path d="M18014 5728 l-19 -23 23 19 c21 18 27 26 19 26 -2 0 -12 -10 -23 -22z"/>
<path d="M17979 5683 c-13 -16 -12 -17 4 -4 9 7 17 15 17 17 0 8 -8 3 -21 -13z"/>
<path d="M17949 5643 c-13 -16 -12 -17 4 -4 16 13 21 21 13 21 -2 0 -10 -8
-17 -17z"/>
<path d="M17879 5553 c-13 -16 -12 -17 4 -4 9 7 17 15 17 17 0 8 -8 3 -21 -13z"/>
<path d="M17430 5456 c0 -2 8 -10 18 -17 15 -13 16 -12 3 4 -13 16 -21 21 -21
13z"/>
<path d="M17764 5408 l-19 -23 23 19 c21 18 27 26 19 26 -2 0 -12 -10 -23 -22z"/>
<path d="M17729 5363 c-13 -16 -12 -17 4 -4 9 7 17 15 17 17 0 8 -8 3 -21 -13z"/>
<path d="M17510 5356 c0 -2 8 -10 18 -17 15 -13 16 -12 3 4 -13 16 -21 21 -21
13z"/>
<path d="M17689 5313 c-13 -16 -12 -17 4 -4 9 7 17 15 17 17 0 8 -8 3 -21 -13z"/>
<path d="M17550 5306 c0 -2 8 -10 18 -17 15 -13 16 -12 3 4 -13 16 -21 21 -21
13z"/>
<path d="M17649 5263 c-13 -16 -12 -17 4 -4 9 7 17 15 17 17 0 8 -8 3 -21 -13z"/>
<path d="M17580 5266 c0 -2 8 -10 18 -17 15 -13 16 -12 3 4 -13 16 -21 21 -21
13z"/>
</g>
</svg>
