<?xml version="1.0" encoding="utf-8"?>
<svg version="1.1" id="Layer_1" xmlns="http://www.w3.org/2000/svg" xmlns:xlink="http://www.w3.org/1999/xlink" x="0px" y="0px"
	 viewBox="0 0 1200 1200" enable-background="new 0 0 1200 1200" xml:space="preserve">
<g>
	<path fill="#004785" d="M515.339,203.787c-9.415,5.811-18.018,12.937-25.479,21.107c-8.91,9.757-16.148,20.93-24.896,30.833
		c-10.196,11.543-22.324,21.224-34.878,30.146c-17.691,12.572-36.363,23.763-55.792,33.435c-6.825,3.398-14.836,8.32-14.488,15.935
		c0.099,2.175,0.925,4.243,1.758,6.255c3.412,8.234,7.227,16.459,13.078,23.183c5.85,6.724,14.043,11.855,22.947,12.233
		c9.81,0.416,19.041-4.906,26.253-11.57c7.212-6.664,12.977-14.741,19.944-21.661c17.983-17.861,43.037-27.16,61.255-44.782
		c6.353-6.145,11.753-13.191,17.126-20.208c4.142-5.409,8.35-10.94,10.582-17.377c1.964-5.663,2.299-11.753,2.329-17.748
		c0.044-8.748-0.52-17.499-1.689-26.169c-0.547-4.057-2.249-9.088-6.335-9.338"/>
	<path fill="#F29681" d="M338.828,345.659c-4.736,1.619-9.763,3.972-11.828,8.53c-1.718,3.79-0.958,8.188-0.166,12.273
		c0.525,2.709,1.05,5.417,1.574,8.126c0.472,2.437,0.952,4.9,1.977,7.161c1.034,2.283,2.589,4.285,4.158,6.238
		c1.813,2.258,3.707,4.521,6.144,6.086c5.091,3.269,11.81,2.948,17.483,0.846c5.673-2.102,10.602-5.766,15.679-9.058
		c3.114-2.019,6.336-3.932,9.024-6.49c4.184-3.983,6.896-9.48,7.509-15.224c0.276-2.59,0.131-5.261-0.752-7.712
		c-1.507-4.182-4.962-7.309-8.292-10.254C369.734,335.917,352.048,341.139,338.828,345.659z"/>
	<g>
		<path fill="#D3E4ED" d="M1062.282,763.345c0,2.47-1.226,4.939-3.679,6.347l-649.966,373.664
			c-15.484,8.899-34.54,8.857-49.983-0.115l-218.878-122.861c-1.35-0.782-2.041-2.14-2.058-3.507v-0.165
			c0.016-1.375,0.716-2.733,2.074-3.515l12.496-7.178l654.913-376.224c7.055-4.058,15.739-4.05,22.794,0.016l220.862,122.713
			l7.763,4.478C1061.056,758.406,1062.282,760.876,1062.282,763.345z"/>
		<g>
			<path fill="#969593" d="M836.045,465.275c12.891,5.267,26.562,11.357,40.759,17.988c-41.553-12.692-95.53,36.77-121.297,111.615
				c-24.205,70.26-15.034,138.22,19.763,159.16c-17.292-7.922-32.44-15.106-43.571-20.883c-0.085-0.043-0.17-0.099-0.27-0.142
				c-1.278-0.667-2.513-1.32-3.691-1.945l0.1-0.114c-33.774-21.423-42.52-88.29-18.712-157.428
				c25.895-75.186,80.482-124.591,121.923-110.309c1.703,0.582,3.364,1.278,4.983,2.073L836.045,465.275z"/>

				<ellipse transform="matrix(0.3256 -0.9455 0.9455 0.3256 -26.5797 1204.5349)" fill="#31353E" cx="831.082" cy="620.9" rx="145.053" ry="79.937"/>

				<ellipse transform="matrix(0.3256 -0.9455 0.9455 0.3256 -19.4732 1214.498)" fill="#F2A661" cx="841.619" cy="620.9" rx="74.413" ry="41.008"/>
			<path fill="#31353E" d="M775.269,754.038c3.024,1.391,6.104,2.797,9.256,4.231c-0.227-0.057-0.44-0.142-0.667-0.213
				C780.834,757.019,777.98,755.671,775.269,754.038z"/>
			<path fill="#31353E" d="M888.588,488.842c-3.961-1.902-7.893-3.762-11.784-5.579c0.497,0.142,1.009,0.312,1.505,0.482
				C881.958,485.009,885.393,486.712,888.588,488.842z"/>
		</g>
		<path fill="#004785" d="M957.746,460.471c-16.454-24.021-36.67-47.148-63.815-57.681c-30.282-11.741-64.34-6.076-95.772,2.115
			c-32.428,8.462-64.612,19.698-92.746,37.744c-28.204-5.409-57.507-6.223-83.952,4.261l-14.179,13.34
			c1.943,7.811,4.339,15.501,6.482,23.26c10.218,36.992,14.576,75.284,15.152,113.717c-3.784,23.032-7.485,46.071-11.183,69.113
			c-1.931,12.053-3.876,24.177-3.564,36.372c0.114,4.628,0.568,9.356,2.499,13.572c5.324,11.627,19.492,15.702,31.971,18.47
			c16.014,3.563,38.076,3.308,54.373,5.154c3.748-4.359,7.496-8.731,11.244-13.09c70.09-81.461,142.934-162.908,235.994-216.189
			c5.863-3.351,12.067-6.843,15.489-12.664c1.59-2.726,2.428-5.608,2.669-8.575C969.203,479.651,963.595,469.031,957.746,460.471z"
			/>
		<g>
			<path fill="#31353E" d="M689.334,712.293c-0.113,0.596-2.535,0.644-7.658,0.222c-5.122-0.455-12.974-1.202-23.992-2.848
				c-11.019-1.673-18.83-3.735-23.725-5.555c-2.45-0.916-4.193-1.705-5.288-2.365c-1.101-0.64-1.571-1.094-1.472-1.371
				c0.483-1.263,9.36,1.809,31.132,5.081c10.904,1.629,18.773,2.86,23.815,4.083C687.197,710.732,689.441,711.734,689.334,712.293z"
				/>
		</g>
		<path fill="#004785" d="M725.089,722.558c-69.025,46.722-140.052,90.477-212.839,131.108c-7.964,4.444-18.768,8.589-25.369,2.286
			c-2.939-2.811-4.046-6.999-4.827-10.988c-6.999-36.032,3.18-72.773,18.229-106.689c19.12-8.483,76.63-35.513,95.737-44.499
			c1.596-0.75,3.395-0.897,5.095-0.428c33.874,9.346,68.242,16.924,102.906,22.709C711.077,717.234,718.956,719.051,725.089,722.558
			z"/>
		<g>
			<path fill="#31353E" d="M492.6,829.868c-0.619-1,22.436-16.38,77.287-50.304c54.851-33.924,78.909-47.682,79.527-46.682
				c0.619,1-22.437,16.38-77.287,50.304C517.277,817.11,493.219,830.869,492.6,829.868z"/>
		</g>
		<g>
			<path fill="#31353E" d="M511.864,745.269c-0.242-0.555,2.095-2.109,7.347-4.95c5.245-2.857,13.416-6.988,24.655-13.122
				c11.221-6.169,19.101-10.831,24.332-13.713c5.222-2.897,7.789-4.029,8.127-3.527c0.319,0.474-1.658,2.492-6.502,6.062
				c-4.85,3.553-12.57,8.677-23.91,14.912c-11.359,6.2-19.834,9.947-25.439,12.121C514.857,745.214,512.092,745.793,511.864,745.269
				z"/>
		</g>
		<path fill="#542C34" d="M968.407,489.39c-0.241,2.967-1.079,5.849-2.669,8.575c-3.421,5.821-9.625,9.313-15.489,12.664
			c-93.06,53.28-165.904,134.727-235.994,216.189c-0.327-1.718-0.497-3.506-0.61-5.224c-1.689-27.712,5.451-55.154,13.515-81.716
			c11.4-37.494,25.37-75.414,51.491-104.631c14.339-16.042,31.971-28.961,50.867-39.268c22.97-12.522,48.34-21.38,74.476-22.516
			C926.428,472.481,949.469,477.549,968.407,489.39z"/>
		<path fill="#542C34" d="M725.743,448.64c-11.21,20.436-18.91,43.391-22.47,66.988c-0.47,3.117-0.794,6.627,0.818,9.043
			c1.48,2.22,4.247,2.798,6.67,2.161s4.592-2.279,6.689-3.907c31.796-24.682,61.578-53.523,95.616-73.358
			c1.915-1.116,3.958-2.323,5.064-4.478c0.799-1.555,0.993-3.395,1.167-5.169c0.505-5.153,0.986-10.402,0.148-15.419
			c-0.839-5.017-3.212-9.854-7.12-12.005c-4.882-2.687-10.799-0.686-16.043,1.546c-20.222,8.608-39.497,20.252-58.703,31.861"/>
		<polygon fill="#004785" points="871.401,262.028 870.024,330.669 867.554,452.847 687.027,380.358 686.46,265.506
			686.105,194.493 		"/>
		<path fill="#83C3B8" d="M810.269,420.265c-8.944,9.427-19.705,16.909-30.395,24.305c-16.611,11.499-33.533,22.985-52.188,30.935
			c-26.889,11.471-57.426,11.542-85.805,6.53c-14.509-2.555-39.14-4.955-45.699-20.798c-1.945-4.685-1.803-9.697-0.298-14.495
			c1.902-6.048,5.977-11.769,10.747-16.042c4.969-4.472,10.307-8.475,15.815-12.266c41.696-28.607,87.68-57.88,140.179-57.086
			c12.692,1.235,27.272,6.19,38.885,13.714c3.847,2.499,7.368,5.281,10.378,8.305c3.762,3.762,6.73,8.461,7.709,13.7
			C821.315,406.225,816.303,413.919,810.269,420.265z"/>
		<path fill="#019798" d="M810.269,420.265c-8.944,9.427-19.705,16.909-30.395,24.305c-16.611,11.499-33.533,22.985-52.188,30.935
			c-26.889,11.471-57.426,11.542-85.805,6.53c-14.509-2.555-39.14-4.955-45.699-20.798c-1.945-4.685-1.803-9.697-0.298-14.495
			c0.511,0.227,1.022,0.454,1.505,0.681c22.189,10.477,46.736,15.971,71.268,15.957c8.603-0.014,17.234-0.696,25.582-2.74
			c11.983-2.939,23.113-8.618,33.902-14.623c13.203-7.368,26.108-15.29,38.643-23.737c9.739-6.573,19.436-13.629,26.307-23.169
			c5.04-6.985,8.362-15.56,8.419-24.049c3.847,2.499,7.368,5.281,10.378,8.305c3.762,3.762,6.73,8.461,7.709,13.7
			C821.315,406.225,816.303,413.919,810.269,420.265z"/>
		<g>
			<path fill="#31353E" d="M672.093,684.864c-0.293,0.025-0.661-1.389-1.1-4.376c-0.209-1.494-0.481-3.38-0.688-5.678
				c-0.155-2.3-0.309-5.01-0.461-8.147c-0.093-3.135-0.053-6.696-0.035-10.696c0.094-1.997,0.192-4.103,0.296-6.32
				c0.06-1.108,0.099-2.247,0.183-3.409c0.104-1.161,0.211-2.35,0.32-3.567c0.833-9.737,2.43-21.241,5.383-34.415
				c2.945-13.177,6.309-24.257,9.444-33.484c0.388-1.155,0.768-2.283,1.138-3.385c0.397-1.092,0.785-2.158,1.163-3.198
				c0.763-2.077,1.488-4.049,2.175-5.92c1.469-3.704,2.762-7.008,3.978-9.889c1.237-2.872,2.327-5.348,3.276-7.444
				c0.969-2.086,1.819-3.782,2.509-5.121c1.387-2.675,2.197-3.894,2.468-3.779c0.27,0.115-0.024,1.554-0.937,4.416
				c-0.453,1.432-1.076,3.214-1.832,5.376c-0.734,2.17-1.623,4.711-2.674,7.635c-1.017,2.935-2.17,6.265-3.465,10.002
				c-0.618,1.877-1.27,3.857-1.956,5.942c-0.346,1.041-0.701,2.108-1.064,3.201c-0.34,1.1-0.689,2.227-1.046,3.38
				c-2.902,9.207-6.113,20.193-9.018,33.195c-2.914,13-4.601,24.303-5.634,33.872c-0.136,1.196-0.27,2.365-0.401,3.506
				c-0.093,1.144-0.184,2.261-0.273,3.35c-0.177,2.18-0.344,4.251-0.503,6.215c-0.169,3.934-0.382,7.441-0.482,10.536
				c-0.041,3.094-0.098,5.777-0.171,8.061c-0.021,2.282,0.009,4.163-0.037,5.661C672.577,683.379,672.386,684.839,672.093,684.864z"
				/>
		</g>
		<path fill="#31353E" d="M595.517,710.5c-9.996,19.506-21.64,38.167-34.766,55.72c-1.35,1.805-2.724,4.368-1.29,6.107
			c0.943,1.143,2.638,1.236,4.118,1.162c6.916-0.348,13.64-2.312,20.236-4.421c10.887-3.481,21.765-7.46,31.23-13.868
			c9.465-6.409,17.498-15.522,20.629-26.516c1.491-5.237,1.758-11.152-0.966-15.867c-3.438-5.949-11.665-8.562-17.905-5.686"/>
		<path fill="#31353E" d="M526.386,708.929c-2.323,13.797-5.246,28.719-15.721,37.994c-4.544,4.023-10.164,6.618-15.831,8.788
			c-10.393,3.979-21.318,6.734-32.43,7.352c-1.028,0.057-2.117,0.083-3.018-0.415c-1.853-1.022-1.992-3.611-1.706-5.708
			c1.885-13.845,11.795-25.562,23.614-33.015c11.82-7.452,25.497-11.295,38.957-15.043"/>
		<path fill="#969593" d="M595.526,383.761c-23.896,16.169-50.464,28.238-73.585,45.498c-23.121,17.26-43.285,41.441-46.498,70.114
			c-1.345,12.005,0.347,24.11,1.053,36.169c2.581,44.137-8.069,87.821-17.103,131.101c-2.394,11.471-4.434,24.359,2.037,34.129
			c6.869,10.371,20.589,13.189,32.877,15.127c14.664,2.313,31.394,4.096,42.759-5.455c10.707-8.998,12.409-24.561,13.335-38.516
			c1.958-29.521,3.916-59.042,5.874-88.563c0.594-8.963,1.226-18.096,4.548-26.442c6.899-17.336,23.9-28.146,39.875-37.786
			c2.974,2.146,1.861,6.809,0.109,10.031c-5.727,10.536-14.942,18.868-20.559,29.463c-10.57,19.938-6.801,44.002-5.065,66.502
			c1.63,21.134,1.204,42.426-1.272,63.477c-0.595,5.061-1.288,10.331,0.397,15.141c1.017,2.904,2.849,5.453,4.849,7.791
			c9.912,11.585,25.021,18.872,40.254,18.242c15.233-0.629,30.121-9.617,36.782-23.331c4.274-8.798,5.115-18.834,5.425-28.61
			c0.351-11.074,0.101-22.253-2.303-33.069c-1.783-8.024-4.737-15.784-5.972-23.911c-3.446-22.692,6.795-45.121,18.356-64.95
			c25.954-44.518,60.53-85.625,72.279-135.799c2.382-10.172,3.766-20.827,1.578-31.042c-2.188-10.215-8.441-19.982-17.958-24.289
			c-9.563-4.328-20.648-2.649-30.97-0.739c-22.652,4.191-45.171,9.096-67.514,14.705"/>
		<ellipse fill="#31353E" cx="360.688" cy="396.085" rx="21.88" ry="26.888"/>
		<path fill="#004785" d="M365.46,388.165c-4.963-1.583-11.069-0.413-14.107,3.817c-2.26,3.147-2.477,7.405-1.486,11.151
			c0.991,3.746,3.051,7.106,5.084,10.405c3.515,5.703,7.031,11.407,10.546,17.11c1.822,2.956,4.809,6.357,8.066,5.151
			c0.93-0.344,1.685-1.036,2.381-1.743c5.421-5.511,11.322-16.143,9.041-24.16C382.629,401.615,373.774,390.817,365.46,388.165z"/>
		<path fill="#542C34" d="M818.467,597.223c-14.521,20.804-23.038,45.748-24.275,71.088c-0.817,16.742,1.415,33.972-3.606,49.964
			c-1.377,4.386-3.326,8.666-6.334,12.143c-2.723,3.148-6.211,5.526-9.71,7.781c-25.815,16.644-54.607,28.657-84.597,35.294
			c5.003-9.792,11.537-18.8,19.29-26.598c1.241-1.248,2.558-2.536,3.098-4.21c0.601-1.862,0.143-3.876-0.203-5.803
			c-1.489-8.305-0.743-17,2.136-24.931c3.639-10.023,10.466-18.516,15.683-27.816c7.366-13.131,11.534-27.905,19.351-40.772
			c5.888-9.691,13.696-18.051,21.587-26.194c13.127-13.547,28.162-27.456,46.919-29.454"/>
		<g>
			<path fill="#969593" d="M307.324,750.521c12.891,5.267,26.562,11.357,40.759,17.988c-41.553-12.692-95.53,36.77-121.297,111.615
				c-24.205,70.26-15.034,138.22,19.763,159.161c-17.292-7.922-32.44-15.106-43.571-20.883c-0.085-0.043-0.17-0.099-0.27-0.142
				c-1.278-0.667-2.513-1.32-3.691-1.945l0.1-0.114c-33.774-21.423-42.52-88.29-18.712-157.428
				c25.895-75.186,80.482-124.591,121.923-110.309c1.703,0.582,3.364,1.278,4.983,2.073L307.324,750.521z"/>

				<ellipse transform="matrix(0.3256 -0.9455 0.9455 0.3256 -652.8551 896.9958)" fill="#31353E" cx="302.361" cy="906.145" rx="145.053" ry="79.937"/>

				<ellipse transform="matrix(0.3256 -0.9455 0.9455 0.3256 -645.7487 906.9589)" fill="#F2A661" cx="312.898" cy="906.145" rx="74.413" ry="41.008"/>
			<path fill="#31353E" d="M246.548,1039.284c3.024,1.391,6.104,2.797,9.256,4.231c-0.227-0.057-0.439-0.142-0.667-0.213
				C252.113,1042.265,249.259,1040.916,246.548,1039.284z"/>
			<path fill="#31353E" d="M359.867,774.088c-3.961-1.903-7.894-3.762-11.784-5.579c0.497,0.142,1.009,0.312,1.505,0.482
				C353.237,770.254,356.673,771.958,359.867,774.088z"/>
		</g>
		<path fill="#004785" d="M558.718,569.53c0.037,0.655,0.074,1.31,0.097,1.967C558.792,570.84,558.756,570.185,558.718,569.53z"/>
		<path fill="#004785" d="M556.216,598.935c-0.159,0.794-0.323,1.586-0.492,2.376C555.893,600.521,556.058,599.73,556.216,598.935z"
			/>
		<path fill="#004785" d="M557.589,591.078c-0.164,1.111-0.34,2.221-0.528,3.328C557.249,593.299,557.425,592.189,557.589,591.078z"
			/>
		<path fill="#004785" d="M558.733,579.859c-0.055,1.035-0.126,2.07-0.211,3.105C558.606,581.929,558.678,580.893,558.733,579.859z"
			/>
		<path fill="#004785 " d="M556.914,595.224c-0.153,0.864-0.31,1.727-0.476,2.588C556.604,596.952,556.761,596.089,556.914,595.224z"
			/>
		<path fill="#004785 " d="M558.04,587.689c-0.097,0.807-0.204,1.612-0.317,2.418C557.836,589.301,557.943,588.495,558.04,587.689z"
			/>
		<path fill="#004785" d="M558.854,576.365c-0.015,0.825-0.044,1.651-0.08,2.477C558.81,578.016,558.839,577.19,558.854,576.365z"/>
		<path fill="#004785" d="M558.851,572.998c0.011,0.649,0.016,1.298,0.014,1.949C558.867,574.296,558.862,573.647,558.851,572.998z"
			/>
		<path fill="#004785" d="M558.41,584.196c-0.068,0.744-0.142,1.489-0.225,2.233C558.268,585.684,558.342,584.94,558.41,584.196z"/>
		<path fill="#004785" d="M555.505,602.336c-0.243,1.103-0.491,2.203-0.75,3.297C555.014,604.539,555.263,603.439,555.505,602.336z"
			/>
		<path fill="#004785" d="M557.904,561.899c0.085,0.535,0.16,1.072,0.234,1.61C558.065,562.971,557.99,562.435,557.904,561.899z"/>
		<path fill="#004785" d="M557.605,560.16c-0.034-0.184-0.06-0.369-0.095-0.553c-0.004,0.005-0.008,0.01-0.012,0.015
			C557.533,559.801,557.572,559.98,557.605,560.16z"/>
		<path fill="#004785" d="M558.352,565.133c0.113,0.997,0.21,1.996,0.286,2.999C558.562,567.129,558.465,566.129,558.352,565.133z"
			/>
		<path fill="#004785" d="M458.444,848.569c-0.525-37.352,4.912-74.789,16.028-110.465c10.804-34.64,26.846-67.406,39.297-101.493
			c10.88-29.821,19.054-61.403,18.011-92.958c-2.984-1.493-6.244-2.495-9.48-2.899c-10.576-1.32-21.11,1.874-31.588,3.734
			c-20.358,3.634-41.298,2.272-61.784-0.554c-15.418-2.115-31.062-5.182-44.606-12.891c-3.223-1.846-6.346-4.003-9.114-6.502
			c-1.604,3.407-3.137,6.829-4.6,10.222c-20.77,48.17-37.394,98.128-49.604,149.137c-3.521,14.694-6.687,29.629-6.402,44.72
			c0.554,29.984,14.878,58.463,34.583,81.078c19.691,22.601,44.564,40.049,69.678,56.418c14.481,9.441,30.197,18.882,46.806,22.26
			c-0.61-1.192-1.135-2.399-1.633-3.62C459.467,873.37,458.615,860.849,458.444,848.569z"/>
		<path fill="#004785" d="M431.527,466.944c-4.869,1.164-9.398,2.939-13.643,5.224c12.649-2.981,25.554-4.898,38.53-5.721
			C448.138,464.999,439.69,464.985,431.527,466.944z"/>
		<path fill="#542C34" d="M735.183,735.023c-1.292-5.636-5.125-9.611-10.094-12.465c-69.025,46.722-140.052,90.477-212.839,131.108
			c-7.964,4.444-18.768,8.589-25.369,2.286c-2.939-2.811-4.046-6.999-4.827-10.988c-8.177-42.136,7.113-85.238,26.236-123.668
			c9.341-18.768,19.634-37.04,29.529-55.524c0.355-0.667,0.71-1.334,1.065-2.016l5.608-18.144
			c2.81-13.416,7.084-26.605,10.264-39.978c0.259-1.094,0.507-2.194,0.75-3.297c0.075-0.341,0.146-0.683,0.219-1.025
			c0.169-0.79,0.333-1.582,0.492-2.376c0.075-0.374,0.149-0.748,0.221-1.123c0.166-0.861,0.324-1.724,0.476-2.588
			c0.049-0.273,0.1-0.546,0.147-0.819c0.189-1.107,0.365-2.216,0.528-3.328c0.048-0.324,0.089-0.648,0.134-0.972
			c0.113-0.805,0.22-1.611,0.317-2.418c0.051-0.42,0.098-0.84,0.146-1.26c0.083-0.744,0.157-1.488,0.225-2.233
			c0.038-0.411,0.079-0.821,0.112-1.232c0.085-1.035,0.155-2.071,0.211-3.105c0.018-0.339,0.027-0.678,0.042-1.017
			c0.036-0.826,0.064-1.652,0.08-2.477c0.008-0.473,0.009-0.946,0.01-1.419c0.002-0.65-0.003-1.3-0.014-1.949
			c-0.009-0.501-0.019-1.001-0.036-1.501c-0.023-0.657-0.06-1.312-0.097-1.967c-0.027-0.466-0.046-0.934-0.08-1.399
			c-0.076-1.003-0.173-2.002-0.286-2.999c-0.062-0.543-0.14-1.083-0.214-1.623c-0.073-0.538-0.148-1.074-0.234-1.61
			c-0.092-0.582-0.193-1.161-0.299-1.74c-0.033-0.18-0.072-0.359-0.107-0.538c0.004-0.005,0.008-0.01,0.012-0.015
			c-0.051-0.266-0.118-0.528-0.173-0.792c-0.14-0.684-0.284-1.368-0.445-2.048c-0.128-0.539-0.273-1.073-0.415-1.609
			c-0.149-0.561-0.292-1.123-0.456-1.68c-0.22-0.75-0.469-1.494-0.719-2.237c-0.119-0.354-0.225-0.711-0.351-1.063
			c-0.4-1.12-0.83-2.232-1.303-3.334c-7.766-18.158-14.055-26.733-27.883-38.928c-1.306-1.164-2.669-2.342-4.117-3.563
			c-12.891-10.96-25.938-22.005-41.029-29.657c-7.595-3.847-15.815-6.786-24.205-8.248c-12.976,0.824-25.881,2.74-38.53,5.721
			c-13.459,3.18-26.634,7.553-39.311,13.104c-2.484,1.093-4.997,2.243-7.113,3.961c-6.687,5.409-8.021,15.645-4.784,23.623
			c1.845,4.529,4.869,8.405,8.532,11.684c2.769,2.499,5.892,4.657,9.114,6.502c13.544,7.709,29.189,10.776,44.606,12.891
			c20.486,2.825,41.427,4.188,61.784,0.554c10.478-1.859,21.012-5.054,31.588-3.734c3.236,0.404,6.496,1.406,9.48,2.899
			c1.043,31.555-7.132,63.136-18.011,92.958c-12.451,34.087-28.493,66.852-39.297,101.493
			c-11.116,35.676-16.554,73.114-16.028,110.465c0.171,12.28,1.022,24.802,5.593,36.187c0.497,1.221,1.022,2.428,1.633,3.62
			c5.963,1.221,12.04,1.661,18.215,1.036c15.006-1.505,28.593-9.157,41.696-16.625c62.282-35.563,124.563-71.112,186.844-106.675
			C724.421,759.271,738.292,748.495,735.183,735.023z"/>
		<path fill="#004785" d="M386.021,675.021c-63.958,6.891-125.66,33.453-174.625,75.172c-5.302,4.518-10.532,9.295-14.181,15.229
			c-0.697,1.134-1.356,2.424-1.135,3.737c0.373,2.212,2.907,3.24,5.078,3.802c11.287,2.922,22.987,4.042,34.233,7.117
			c23.688,6.479,44.821,21.883,58.239,42.451c16.463-24.193,35.938-46.699,59.82-63.609s52.462-27.999,81.725-28.087
			c4.907-0.015,10.297,0.122,14.102-2.975c3.685-2.999,4.746-8.386,3.663-13.012c-1.083-4.625-3.955-8.62-7.047-12.227
			c-13.464-15.707-32.527-26.512-52.92-29.997"/>
		<path fill="#004785" d="M468.269,403.756c17.334-1.206,37.008,2.222,47.048,16.403c5.825,8.227,7.354,18.639,10.917,28.068
			c4.334,11.468,11.697,21.489,18.744,31.521c1.285,1.83,2.612,3.808,2.666,6.043c0.14,5.768-7.692,8.602-9.205,14.169
			c-0.858,3.157,0.506,6.652-0.583,9.737c-0.756,2.142-2.58,3.723-4.468,4.988c-8.691,5.825-19.637,6.863-30.078,7.539
			c-24.662,1.597-49.814,2.088-73.66-4.402c-23.846-6.489-46.521-20.849-58.056-42.705c-10.131-19.196-11.657-58.021,10.825-70.45
			c10.704-5.917,23.084,0.188,33.984,1.966C433.765,409.469,450.985,404.959,468.269,403.756z"/>
		<path fill="#683E48" d="M437.364,736.479c0.531-2.725,1.043-5.722-0.324-8.139c-1.647-2.91-5.354-3.841-8.677-4.221
			c-13.843-1.583-27.857,1.541-40.908,6.418c-32.354,12.091-59.869,34.752-82.73,60.643c-7.138,8.083-14.324,18.389-11.432,28.777
			c3.035,10.906,15.797,15.988,27.105,16.503s22.886-1.891,33.831,0.996c13.14,3.467,26.347,9.265,38.317,15.7
			c7.07,3.801,32.636,20.903,40.462,21.563c6.613,0.558-5.367-43.695-5.182-50.957C428.576,794.47,431.764,765.241,437.364,736.479z
			"/>
		<path fill="#F2A661" d="M278.47,689.746c6.025-10.63,16.39-18.536,27.987-22.383s24.327-3.77,36.141-0.651
			c5.038,1.33,10.39,3.595,12.675,8.278c1.358,2.783,1.407,6.029,1.014,9.101c-1.212,9.493-6.414,18.231-13.505,24.658
			c-7.091,6.427-15.97,10.663-25.19,13.224c-5.234,1.454-10.694,2.398-16.096,1.83c-2.368-0.249-4.786-0.825-6.677-2.273
			c-1.529-1.171-2.603-2.827-3.578-4.488c-3.614-6.159-6.281-12.872-7.879-19.832"/>

			<ellipse transform="matrix(0.866 -0.5 0.5 0.866 -311.2391 242.8698)" fill="#F7D7A6" cx="297.582" cy="702.215" rx="20.381" ry="23.583"/>

			<ellipse transform="matrix(0.866 -0.5 0.5 0.866 -186.1275 260.2482)" fill="#F7D7A6" cx="392.566" cy="477.443" rx="41.613" ry="48.151"/>
		<path fill="#004785" d="M629.204,506.951c-0.412,5.012-1.888,10.193-5.48,13.728c-3.591,3.521-9.682,4.827-13.771,1.888
			c-1.377-0.994-2.484-2.399-4.032-3.095c-1.178-0.525-2.512-0.582-3.804-0.639c-16.213-0.681-32.411-1.235-48.624-1.661
			c-13.359-0.369-26.704-0.639-40.064-0.837c-4.5-0.071-9.739-0.511-12.181-4.287c-1.831-2.839-1.334-6.616-0.17-9.796
			c2.385-6.473,7.354-11.897,13.472-15.02c5.991-3.053,13.331-1.221,19.875-0.923c8.291,0.383,16.568,0.767,24.844,1.164
			c0.852,0.043,1.704,0.071,2.556,0.114c15.574,0.724,31.148,1.448,46.721,2.172c3.663,0.171,7.354,0.355,10.847,1.448
			c3.479,1.107,6.786,3.265,8.475,6.502C629.331,500.506,629.459,503.799,629.204,506.951z"/>
		<path fill="#31353E" d="M629.204,506.951c-0.412,5.012-1.888,10.193-5.48,13.728c-3.591,3.521-9.682,4.827-13.771,1.888
			c-1.377-0.994-2.484-2.399-4.032-3.095c-1.178-0.525-2.512-0.582-3.804-0.639c-16.213-0.681-32.411-1.235-48.624-1.661
			c-1.604-3.932-2.172-8.262-1.42-12.451c1.192-6.587,5.125-12.153,9.753-17.135c15.574,0.724,31.148,1.448,46.721,2.172
			c3.663,0.171,7.354,0.355,10.847,1.448c3.479,1.107,6.786,3.265,8.475,6.502C629.331,500.506,629.459,503.799,629.204,506.951z"/>
		<ellipse fill="#004785" cx="558.752" cy="501.168" rx="16.049" ry="26.888"/>
		<g>
			<path fill="#31353E" d="M433.642,716.224c-0.246,0.162-0.943-0.347-2.11-1.57c-0.589-0.608-1.271-1.412-2.117-2.369
				c-0.877-0.934-1.883-2.047-3.021-3.344c-1.186-1.253-2.531-2.674-4.041-4.269c-0.788-0.763-1.619-1.567-2.494-2.414
				c-0.435-0.424-0.881-0.859-1.339-1.304c-0.478-0.424-0.967-0.858-1.467-1.303c-3.962-3.59-8.892-7.607-15.12-11.588
				c-6.227-3.982-11.942-6.77-16.864-8.859c-0.613-0.268-1.213-0.53-1.798-0.785c-0.596-0.228-1.178-0.45-1.746-0.668
				c-1.136-0.438-2.214-0.855-3.238-1.25c-2.081-0.701-3.935-1.325-5.571-1.876c-1.655-0.489-3.087-0.935-4.303-1.338
				c-1.223-0.367-2.24-0.648-3.039-0.927c-1.6-0.545-2.355-0.965-2.311-1.256c0.044-0.291,0.883-0.425,2.6-0.377
				c0.857,0.031,1.94,0.079,3.24,0.23c1.293,0.188,2.812,0.437,4.567,0.753c1.745,0.352,3.697,0.871,5.9,1.43
				c1.082,0.344,2.223,0.707,3.425,1.089c0.6,0.196,1.214,0.398,1.844,0.604c0.618,0.239,1.251,0.483,1.899,0.733
				c5.193,1.966,11.206,4.764,17.688,8.909c6.484,4.144,11.547,8.427,15.511,12.315c0.499,0.483,0.986,0.955,1.462,1.416
				c0.452,0.485,0.892,0.959,1.322,1.42c0.851,0.93,1.659,1.814,2.426,2.651c1.432,1.765,2.723,3.319,3.775,4.755
				c1.023,1.46,1.887,2.734,2.6,3.829c0.683,1.117,1.181,2.08,1.569,2.845C433.657,715.244,433.887,716.062,433.642,716.224z"/>
		</g>
		<g>
			<path fill="#31353E" d="M477.556,516.519c-0.183,0.198-1.042-0.128-2.353-1.426c-1.293-1.287-2.971-3.668-4.037-7.358
				c-0.526-1.835-0.924-3.988-0.988-6.406c-0.111-2.415,0.051-5.122,0.663-8.017c1.19-5.774,4.085-12.41,9.525-18.479
				c2.692-3.043,5.65-5.468,8.553-7.365c2.904-1.911,5.766-3.341,8.453-4.439c5.388-2.189,10.045-3.094,13.694-3.538
				c7.341-0.8,10.72-0.015,10.719,0.492c0.02,0.663-3.327,0.964-10.204,2.475c-3.42,0.794-7.739,1.951-12.659,4.177
				c-4.872,2.249-10.487,5.523-15.379,11.036c-4.922,5.492-7.608,11.392-8.872,16.502c-0.648,2.565-0.915,4.963-0.96,7.124
				c-0.091,2.165,0.101,4.082,0.387,5.747c0.59,3.336,1.655,5.602,2.435,7.058C477.32,515.559,477.775,516.291,477.556,516.519z"/>
		</g>
		<g>
			<path fill="#31353E" d="M368.132,431.154c-0.555-0.97,5.001-5.456,19.684-12.741c14.742-7.164,21.69-8.817,22.118-7.785
				c0.478,1.138-5.663,4.523-20.241,11.608C375.175,429.439,368.74,432.229,368.132,431.154z"/>
		</g>
		<polygon fill="#969593" points="1007.179,203.778 1007.179,387.684 867.554,452.847 870.024,330.669 871.401,262.028 		"/>
		<path fill="#E8E5DE" d="M686.108,194.495c2.939-0.519,135.122-51.737,136.859-51.056c1.738,0.681,184.208,60.335,184.208,60.335
			l-135.767,58.248L686.108,194.495z"/>
		<polygon fill="#004785" points="1007.179,203.778 1007.179,272.534 870.024,330.669 871.401,262.028 		"/>
		<path fill="#EE7471" d="M871.401,262.028l-1.377,68.642c0,0-143.572-51.208-183.564-65.163l-0.355-71.012L871.401,262.028z"/>
	</g>
	<g>
		<path fill="#E8E5DE" d="M731.634,383.027c-6.559,12.351-20.486,18.57-33.491,23.709c-8.745,3.45-17.576,6.843-26.789,8.731
			c-11.982,2.456-24.191,2.314-36.33,0.724c-9.98-1.292-19.903-3.578-29.614-6.204c-0.809-0.213-1.619-0.426-2.413-0.653
			c-7.78-2.144-15.929-4.728-21.352-10.719c-10.847-11.982-5.991-31.105-11.188-46.409c-1.973-5.792-5.366-10.96-8.745-16.057
			c-6.687-10.122-13.373-20.245-20.074-30.367c-8.036-12.181-16.156-24.489-21.295-38.147c-5.153-13.657-7.155-28.976-2.697-42.874
			c4.443-13.899,16.213-25.923,30.651-28.01l11.698-0.128c25.27-5.977,52.329-11.854,76.62-2.726
			c9.328,3.507,17.718,9.072,25.938,14.694c7.738,5.31,15.474,10.747,21.934,17.547c14.778,15.531,21.721,36.713,28.238,57.142
			c5.607,17.604,11.215,35.208,16.823,52.812C734.444,351.439,739.186,368.802,731.634,383.027z"/>
		<path fill="#EF7E18" d="M731.634,383.027c-6.559,12.351-20.486,18.57-33.491,23.709c-8.745,3.45-17.576,6.843-26.789,8.731
			c-11.982,2.456-24.191,2.314-36.33,0.724c-1.164-13.87-2.569-27.812-6.743-41.072c-4.628-14.665-12.521-28.081-17.689-42.548
			c-10.889-30.424-9.242-63.957-3.293-95.715c1.775-9.469,3.748-19.989-1.334-28.18l-9.143,5.636
			c-23.255,11.571-32.411,41.128-29.345,66.924c3.081,25.795,15.56,49.32,25.355,73.369c7.169,17.576,12.99,36.685,12.578,55.382
			c-0.809-0.213-1.619-0.426-2.413-0.653c-7.78-2.144-15.929-4.728-21.352-10.719c-10.847-11.982-5.991-31.105-11.188-46.409
			c-1.973-5.792-5.366-10.96-8.745-16.057c-6.687-10.122-13.373-20.245-20.074-30.367c-8.036-12.181-16.156-24.489-21.295-38.147
			c-5.153-13.657-7.155-28.976-2.697-42.874c4.443-13.899,16.213-25.923,30.651-28.01l11.698-0.128
			c25.27-5.977,52.329-11.854,76.62-2.726c9.328,3.507,17.718,9.072,25.938,14.694c7.738,5.31,15.474,10.747,21.934,17.547
			c14.778,15.531,21.721,36.713,28.238,57.142c5.607,17.604,11.215,35.208,16.823,52.812
			C734.444,351.439,739.186,368.802,731.634,383.027z"/>
		<path fill="#F29681" d="M575.694,252.102c1.493,1.948,3.534,4.034,5.961,3.671c0.968-0.144,1.83-0.674,2.65-1.208
			c14.685-9.558,25.763-24.467,30.867-41.228c0.816-2.68,1.491-5.492,1.086-8.265c-0.405-2.773-2.11-5.515-4.766-6.406
			c-3.271-1.098-6.719,0.803-9.645,2.632c-6.268,3.917-12.537,7.834-18.805,11.751c-5.085,3.178-11.675,6.086-15.374,10.993
			C560.913,233.007,570.04,245.034,575.694,252.102z"/>
		<path fill="#3DB29F" d="M647.518,143.811c0.014,16.255-10.79,31.304-18.995,44.62c-1.874,3.053-3.819,6.105-5.835,9.115
			c-13.117,19.62-29.6,37.593-54.246,40.887c-14.609,1.959-30.012-1.633-41.866-10.378c-11.329-8.348-19.024-20.94-23.439-34.3
			c-0.199-0.596-0.383-1.192-0.568-1.788c-4.6-14.751-6.474-31.475-5.792-47.957c0.525-13.501,2.769-26.832,6.616-38.772
			c14.367-44.663,69.72-74.69,109.769-40.404c5.764,4.94,10.25,11.201,14.282,17.618
			C638.943,100.781,647.503,121.905,647.518,143.811z"/>
		<path fill="#31353E" d="M618.471,139.609c-0.54,12.039-8.419,22.545-17.391,30.594c-26.165,23.467-64.893,31.971-98.512,21.764
			c-4.6-14.751-6.474-31.475-5.792-47.957c15.375,5.324,32.156,6.389,48.326,4.273c19.266-2.527,37.749-9.384,55.126-18.044
			c4.145-2.073,9.057-4.274,13.189-2.186C617.392,130.069,618.655,135.165,618.471,139.609z"/>
	</g>
	<path fill="#004785" d="M652.243,298.186c0.179,14.902,5.1,29.285,7.799,43.942c2.417,13.128,3.05,26.509,3.678,39.843
		c0.172,3.647,0.331,7.391-0.807,10.86c-2.401,7.315-9.772,11.563-16.331,15.594c-16.574,10.184-31.453,23.119-43.844,38.115
		c-3.022,3.657-6.011,7.712-6.457,12.435c-0.682,7.215,4.715,13.548,10.399,18.043c10.097,7.985,23.096,13.375,35.776,11.16
		c17.211-3.006,28.98-18.531,38.963-32.87c4.731-6.795,9.461-13.589,14.192-20.384c6.111-8.777,12.258-17.617,16.668-27.361
		c8.407-18.575,10.08-39.65,7.925-59.925c-2.154-20.275-7.963-39.965-14.014-59.436c-1.751-5.634-3.534-11.284-6.093-16.6
		c-3.43-7.126-8.244-13.582-14.094-18.903c-4.023-3.659-8.955-7.731-13.912-4.059c-4.543,3.365-8.216,9.867-10.913,14.718
		C655.293,273.947,652.098,286.058,652.243,298.186z"/>
	<path fill="#F29681" d="M603.648,469.274c-9.35-0.458-18.982,1.553-26.779,6.734c-7.797,5.181-13.551,13.726-14.316,23.057
		c-0.765,9.33,3.955,19.163,12.245,23.512c1.197,0.628,2.483,1.15,3.833,1.224c1.184,0.065,2.354-0.217,3.523-0.417
		c3.667-0.63,7.469-0.461,11.065,0.492c3.211,0.85,6.275,2.318,9.573,2.713s7.095-0.61,8.702-3.517
		c0.356-0.644,0.592-1.358,1.036-1.944c0.724-0.955,1.889-1.441,2.973-1.952c6.285-2.962,11.511-8.203,14.236-14.595
		c2.578-6.047,2.864-13.06,0.678-19.26C629.244,481.992,618.505,467.852,603.648,469.274"/>
	<g>
		<path fill="#31353E" d="M457.238,311.551c-0.561,0.215-1.398-0.578-2.611-2.443c-0.612-0.929-1.316-2.129-2.183-3.565
			c-0.858-1.443-1.894-3.117-3.226-4.921c-2.683-3.603-5.135-5.443-6.823-6.614c-0.433-0.268-0.808-0.527-1.126-0.773
			c-0.324-0.227-0.603-0.407-0.815-0.601c-0.428-0.377-0.621-0.718-0.562-1.006c0.059-0.288,0.367-0.497,0.98-0.598
			c0.305-0.045,0.694-0.087,1.15-0.054c0.45,0.051,0.98,0.142,1.592,0.278c2.383,0.603,5.944,2.649,9.02,6.825
			c1.531,2.075,2.564,3.998,3.293,5.658c0.739,1.659,1.19,3.06,1.467,4.186C457.937,310.178,457.776,311.345,457.238,311.551z"/>
	</g>
	<g>
		<path fill="#31353E" d="M698.213,398.985c-0.165,0.583-1.346,0.757-3.676,0.634c-2.333-0.107-5.825-0.53-10.728-0.69
			c-4.904-0.118-8.415,0.106-10.75,0.08c-2.333-0.009-3.502-0.25-3.634-0.841c-0.125-0.555,0.823-1.359,3.157-2.132
			c2.326-0.753,6.071-1.492,11.348-1.364c5.275,0.171,8.972,1.121,11.252,2.005C697.468,397.582,698.369,398.438,698.213,398.985z"
			/>
	</g>
	<g>
		<path fill="#31353E" d="M690.42,378.335c0.032,0.277-0.157,0.674-0.458,1.656c-0.072,0.264-0.158,0.505-0.247,0.784
			c-0.086,0.298-0.186,0.568-0.289,0.867c-0.198,0.646-0.43,1.246-0.719,1.71c-0.292,0.451-0.647,0.782-1.035,1.13
			c-0.381,0.379-0.823,0.672-1.298,1.013c-0.486,0.307-1.012,0.627-1.619,0.9c-0.299,0.148-0.612,0.297-0.957,0.421
			c-0.33,0.151-0.685,0.29-1.071,0.417c-0.751,0.286-1.486,0.526-2.204,0.747c-0.703,0.235-1.421,0.411-2.068,0.62
			c-0.687,0.169-1.28,0.387-1.897,0.536c-0.57,0.189-1.139,0.338-1.635,0.492c-1.001,0.303-1.777,0.569-2.341,0.724
			c-0.568,0.153-0.939,0.186-1.187,0.035c-0.248-0.152-0.379-0.485-0.45-1.096c-0.089-0.624-0.069-1.491,0.075-2.698
			c0.176-1.179,0.52-2.683,1.323-4.343c0.399-0.832,0.913-1.696,1.558-2.579c0.66-0.864,1.46-1.728,2.421-2.551
			c0.97-0.808,1.965-1.439,2.931-1.934c0.979-0.468,1.92-0.818,2.822-1.013c0.887-0.228,1.746-0.268,2.505-0.283
			c0.78,0.049,1.46,0.087,2.092,0.332c0.641,0.28,1.212,0.72,1.698,1.231c0.239,0.233,0.457,0.473,0.655,0.728
			c0.195,0.241,0.365,0.446,0.518,0.68C690.144,377.721,690.388,378.058,690.42,378.335z"/>
	</g>
</g>
</svg>
